<?xml version="1.0" standalone="no"?>
<!DOCTYPE svg PUBLIC "-//W3C//DTD SVG 20010904//EN"
 "http://www.w3.org/TR/2001/REC-SVG-20010904/DTD/svg10.dtd">
<svg version="1.0" xmlns="http://www.w3.org/2000/svg"
 width="435.000000pt" height="228.000000pt" viewBox="0 0 435.000000 228.000000"
 preserveAspectRatio="xMidYMid meet">

<g transform="translate(0.000000,228.000000) scale(0.100000,-0.100000)"
fill="#000000" stroke="none">
<path d="M430 1140 l0 -710 708 2 707 3 3 708 2 707 -710 0 -710 0 0 -710z
m1268 3 l-3 -558 -557 -3 -558 -2 0 560 0 560 560 0 560 0 -2 -557z"/>
<path d="M680 1520 c0 -73 2 -80 20 -80 16 0 20 7 20 30 0 25 4 30 25 30 16 0
25 6 25 15 0 9 -9 15 -25 15 -18 0 -25 5 -25 20 0 16 7 20 30 20 20 0 30 5 30
15 0 11 -12 15 -50 15 l-50 0 0 -80z"/>
<path d="M1047 1510 c-189 -48 -315 -248 -277 -437 36 -177 168 -293 341 -301
125 -6 242 41 305 124 l24 31 -61 43 -61 42 -31 -30 c-49 -46 -95 -65 -157
-65 -114 0 -196 80 -207 205 -13 136 81 248 207 248 53 0 120 -29 155 -66 l25
-26 60 38 c33 22 60 44 60 51 0 22 -102 102 -158 123 -65 25 -169 34 -225 20z"/>
<path d="M2437 1504 c-14 -15 -7 -53 12 -59 31 -10 52 5 49 34 -2 19 -9 27
-28 29 -14 2 -29 0 -33 -4z"/>
<path d="M2605 1473 l-25 -38 22 -3 c14 -3 28 5 39 19 l18 24 23 -23 c14 -12
32 -22 41 -22 16 0 15 4 -5 40 -19 33 -28 40 -55 40 -26 0 -37 -7 -58 -37z"/>
<path d="M3337 1504 c-14 -15 -7 -53 12 -59 31 -10 52 5 49 34 -2 19 -9 27
-28 29 -14 2 -29 0 -33 -4z"/>
<path d="M2173 1480 c-93 -56 -95 -206 -4 -267 58 -39 160 -27 201 22 13 15
11 20 -9 36 -23 18 -24 18 -48 -1 -63 -49 -143 -8 -143 73 0 82 81 126 142 78
23 -19 25 -19 48 -1 21 16 22 20 10 35 -39 47 -140 60 -197 25z"/>
<path d="M2430 1295 l0 -105 35 0 35 0 0 105 0 105 -35 0 -35 0 0 -105z"/>
<path d="M2598 1385 c-31 -17 -52 -73 -43 -114 3 -16 18 -41 32 -55 21 -21 35
-26 77 -26 32 0 61 6 75 16 l24 17 -24 17 c-17 14 -28 16 -45 8 -25 -12 -74
-3 -74 12 0 6 33 10 75 10 74 0 75 0 75 25 0 34 -25 82 -49 95 -28 14 -91 12
-123 -5z m86 -41 c33 -13 17 -34 -24 -34 -41 0 -49 7 -28 28 13 13 28 15 52 6z"/>
<path d="M2820 1295 l0 -105 30 0 c30 0 30 0 30 56 0 67 13 94 44 94 30 0 36
-16 36 -91 0 -59 0 -59 30 -59 l30 0 0 83 c0 102 -14 127 -69 127 -20 0 -43
-6 -50 -12 -11 -10 -14 -10 -18 0 -3 6 -18 12 -34 12 l-29 0 0 -105z"/>
<path d="M3109 1371 c-24 -24 -29 -38 -29 -76 0 -38 5 -52 29 -76 25 -24 38
-29 79 -29 34 0 57 6 73 19 24 20 24 20 4 35 -14 10 -32 13 -57 9 -44 -6 -68
8 -68 42 0 34 24 48 68 42 25 -4 43 -1 57 9 20 15 20 15 -4 35 -16 13 -39 19
-73 19 -41 0 -54 -5 -79 -29z"/>
<path d="M3330 1295 l0 -105 35 0 35 0 0 105 0 105 -35 0 -35 0 0 -105z"/>
<path d="M3488 1371 c-28 -25 -33 -36 -33 -76 0 -40 5 -51 33 -76 35 -31 97
-40 120 -17 9 9 12 9 12 0 0 -7 13 -12 30 -12 l30 0 0 105 0 105 -30 0 c-17 0
-30 -5 -30 -12 0 -9 -3 -9 -12 0 -23 23 -85 14 -120 -17z m120 -43 c7 -7 12
-21 12 -33 0 -28 -19 -45 -50 -45 -31 0 -50 17 -50 45 0 28 19 45 50 45 14 0
31 -5 38 -12z"/>
<path d="M3760 1380 c-39 -39 -20 -81 45 -103 22 -8 40 -20 40 -27 0 -20 -21
-23 -38 -5 -20 20 -67 20 -67 0 0 -8 9 -24 21 -36 30 -30 115 -24 141 12 27
36 9 74 -45 92 -45 15 -61 37 -28 37 12 0 21 -4 21 -10 0 -5 14 -10 30 -10 36
0 40 20 10 50 -14 14 -33 20 -65 20 -32 0 -51 -6 -65 -20z"/>
<path d="M2650 1084 c-11 -12 -10 -18 3 -31 8 -9 23 -13 31 -10 21 8 21 43 0
51 -21 8 -20 8 -34 -10z"/>
<path d="M2950 945 c0 -146 1 -155 19 -155 11 0 21 6 24 13 4 10 7 10 18 0 22
-22 85 -16 116 11 24 21 28 32 28 76 0 44 -4 55 -28 76 -29 25 -100 34 -112
14 -16 -25 -25 -5 -25 55 0 58 -2 65 -20 65 -19 0 -20 -7 -20 -155z m144 -11
c34 -33 10 -104 -34 -104 -32 0 -51 12 -61 37 -9 25 2 60 25 75 19 13 54 9 70
-8z"/>
<path d="M2140 964 c0 -114 0 -116 29 -145 24 -24 38 -29 76 -29 38 0 52 5 76
29 29 29 29 31 29 145 0 109 -1 116 -20 116 -19 0 -20 -7 -20 -105 0 -92 -3
-108 -20 -125 -11 -11 -31 -20 -45 -20 -14 0 -34 9 -45 20 -17 17 -20 33 -20
125 0 98 -1 105 -20 105 -19 0 -20 -7 -20 -116z"/>
<path d="M2440 935 l0 -145 80 0 c73 0 80 2 80 20 0 18 -7 20 -60 20 l-60 0 0
125 c0 118 -1 125 -20 125 -19 0 -20 -7 -20 -145z"/>
<path d="M2650 890 c0 -93 1 -100 20 -100 19 0 20 7 20 100 0 93 -1 100 -20
100 -19 0 -20 -7 -20 -100z"/>
<path d="M2770 970 c-11 -11 -20 -26 -20 -34 0 -24 34 -55 70 -64 25 -6 35
-14 35 -28 0 -24 -37 -31 -58 -10 -19 20 -47 21 -47 3 0 -26 36 -47 78 -47 45
0 72 20 72 53 0 33 -12 45 -55 60 -47 16 -60 47 -21 47 14 0 28 -4 31 -10 11
-17 35 -11 35 10 0 41 -85 55 -120 20z"/>
<path d="M3239 961 c-39 -39 -40 -96 -3 -140 22 -26 33 -31 71 -31 62 0 103
40 103 100 0 91 -106 135 -171 71z m111 -31 c55 -55 -24 -136 -82 -83 -25 23
-23 68 4 87 30 21 54 20 78 -4z"/>
<path d="M3493 966 c-24 -21 -28 -32 -28 -76 0 -44 4 -55 28 -76 30 -26 83
-32 118 -14 13 7 19 7 19 0 0 -5 9 -10 20 -10 19 0 20 7 20 100 0 92 -2 100
-19 100 -11 0 -21 -6 -24 -12 -4 -10 -7 -10 -18 0 -22 21 -85 15 -116 -12z
m117 -36 c24 -24 25 -48 4 -78 -31 -44 -104 -20 -104 35 0 57 61 82 100 43z"/>
</g>
</svg>
