<?xml version="1.0" standalone="no"?>
<!DOCTYPE svg PUBLIC "-//W3C//DTD SVG 20010904//EN"
 "http://www.w3.org/TR/2001/REC-SVG-20010904/DTD/svg10.dtd">
<svg version="1.0" xmlns="http://www.w3.org/2000/svg"
 width="1194.000000pt" height="485.000000pt" viewBox="0 0 1194.000000 485.000000"
 preserveAspectRatio="xMidYMid meet">

<g transform="translate(0.000000,485.000000) scale(0.100000,-0.100000)"
fill="#000000" stroke="none">
<path d="M0 2425 l0 -2425 2425 0 2425 0 0 2425 0 2425 -2425 0 -2425 0 0
-2425z m4340 0 l0 -1915 -1915 0 -1915 0 0 1915 0 1915 1915 0 1915 0 0 -1915z"/>
<path d="M880 3715 l0 -275 60 0 60 0 0 110 0 110 85 0 85 0 0 50 0 50 -85 0
-85 0 0 65 0 65 110 0 110 0 0 50 0 50 -170 0 -170 0 0 -275z"/>
<path d="M2215 3696 c-488 -82 -855 -398 -1003 -866 -50 -156 -65 -279 -59
-454 8 -215 48 -377 138 -553 178 -349 481 -577 884 -665 93 -20 390 -17 493
5 245 54 454 162 621 321 55 53 144 157 164 193 5 7 -70 65 -202 157 -116 80
-214 146 -218 146 -4 0 -19 -16 -32 -35 -13 -19 -54 -64 -91 -99 -224 -211
-539 -265 -805 -136 -196 95 -336 270 -396 495 -31 114 -31 327 0 439 73 273
269 477 521 543 89 23 272 23 360 -1 156 -43 310 -148 407 -278 l20 -27 154
106 c85 58 182 126 217 150 l62 44 -44 57 c-173 224 -439 384 -741 447 -107
23 -347 28 -450 11z"/>
<path d="M6935 3689 c-79 -23 -117 -115 -73 -179 32 -48 63 -62 126 -57 63 4
97 32 113 89 24 91 -71 175 -166 147z"/>
<path d="M10016 3690 c-70 -22 -109 -98 -83 -163 21 -49 69 -77 131 -77 41 0
53 5 81 33 42 42 53 92 31 139 -26 55 -100 86 -160 68z"/>
<path d="M7453 3553 l-83 -128 73 -3 72 -3 65 70 65 69 60 -69 59 -69 78 0 78
0 -85 128 -84 127 -108 3 -108 2 -82 -127z"/>
<path d="M6170 3653 c-165 -27 -317 -140 -390 -289 -156 -318 17 -700 352
-779 128 -30 283 -8 397 57 51 29 171 139 171 156 -1 9 -165 122 -177 122 -5
0 -28 -20 -52 -44 -121 -123 -318 -122 -432 1 -67 73 -84 121 -84 238 0 89 3
106 28 157 54 109 152 172 272 172 87 0 152 -27 216 -90 l45 -44 87 60 c48 34
87 66 87 72 0 23 -119 125 -182 156 -103 50 -236 72 -338 55z"/>
<path d="M7528 3301 c-72 -24 -117 -52 -162 -101 -95 -106 -120 -259 -65 -405
29 -79 116 -165 195 -194 114 -43 249 -37 359 15 53 24 121 86 112 101 -3 4
-37 30 -77 57 l-71 49 -22 -21 c-88 -82 -307 -39 -307 60 0 17 18 18 261 18
l261 0 -4 88 c-5 110 -36 182 -107 251 -91 89 -248 123 -373 82z m190 -185
c34 -18 68 -54 77 -83 l6 -23 -155 0 c-86 0 -156 3 -156 8 0 19 43 74 72 92
39 24 116 27 156 6z"/>
<path d="M8531 3304 c-24 -9 -61 -34 -82 -55 l-39 -39 0 45 0 45 -105 0 -105
0 0 -355 0 -355 105 0 105 0 0 211 c0 233 7 267 61 294 42 22 111 19 144 -7
49 -39 55 -69 55 -293 l0 -205 106 0 105 0 -3 268 c-3 254 -4 269 -26 317 -28
61 -55 91 -107 117 -53 28 -155 33 -214 12z"/>
<path d="M9350 3307 c-78 -22 -141 -60 -190 -114 -62 -68 -92 -144 -93 -238
-2 -176 98 -312 270 -365 142 -44 297 -8 393 92 l40 40 -82 59 c-79 57 -108
70 -108 50 0 -22 -73 -54 -124 -54 -104 0 -176 69 -176 168 0 99 72 168 178
168 44 0 61 -6 98 -32 l45 -31 80 55 c43 31 79 61 79 67 0 21 -76 82 -138 111
-74 35 -197 46 -272 24z"/>
<path d="M10609 3301 c-217 -69 -315 -309 -216 -525 58 -126 223 -220 354
-202 54 7 130 39 160 68 l23 21 0 -36 0 -37 105 0 105 0 0 355 0 355 -105 0
-105 0 0 -36 0 -36 -35 31 c-67 58 -182 75 -286 42z m194 -192 c50 -13 103
-61 118 -106 26 -78 -12 -172 -84 -209 -40 -21 -123 -22 -164 -1 -137 71 -124
260 23 312 48 17 59 18 107 4z"/>
<path d="M11523 3303 c-117 -40 -176 -110 -175 -209 0 -58 17 -97 59 -135 40
-37 73 -53 193 -88 93 -27 130 -47 130 -72 0 -4 -10 -20 -22 -34 -42 -48 -142
-30 -170 31 -11 23 -15 24 -111 24 l-99 0 7 -37 c24 -133 166 -223 330 -210
204 16 321 148 260 295 -32 75 -91 113 -235 152 -47 12 -93 26 -102 31 -26 14
-32 48 -12 70 35 39 144 17 144 -29 0 -8 30 -12 100 -12 112 0 110 -1 89 73
-14 53 -69 110 -131 137 -71 30 -185 36 -255 13z"/>
<path d="M6870 2945 l0 -355 105 0 105 0 0 355 0 355 -105 0 -105 0 0 -355z"/>
<path d="M9950 2945 l0 -355 105 0 105 0 0 355 0 355 -105 0 -105 0 0 -355z"/>
<path d="M8637 2263 c-4 -3 -7 -240 -7 -525 l0 -518 75 0 75 0 0 46 0 47 43
-40 c55 -51 103 -68 192 -67 135 1 247 72 303 192 23 50 27 70 27 157 0 87 -3
107 -26 155 -48 103 -109 155 -215 186 -102 29 -215 7 -289 -57 l-35 -31 0
231 0 231 -68 0 c-38 0 -72 -3 -75 -7z m480 -539 c51 -42 73 -82 80 -147 8
-76 -28 -154 -88 -194 -37 -25 -52 -28 -120 -28 -71 0 -80 2 -115 31 -67 54
-79 77 -82 162 -3 71 -1 81 26 123 43 66 96 91 189 87 63 -3 76 -7 110 -34z"/>
<path d="M7613 2236 c-22 -19 -28 -32 -28 -66 0 -55 37 -90 96 -90 93 0 133
111 60 167 -28 22 -97 16 -128 -11z"/>
<path d="M5852 1843 l3 -378 26 -56 c68 -144 241 -231 399 -201 130 24 224 92
277 200 l28 57 3 378 3 377 -75 0 -75 0 -3 -358 -3 -359 -30 -49 c-37 -61
-114 -104 -185 -104 -68 0 -145 42 -181 98 l-29 46 0 363 0 363 -80 0 -81 0 3
-377z"/>
<path d="M6870 1720 l0 -500 280 0 280 0 0 70 0 70 -200 0 -200 0 0 430 0 430
-80 0 -80 0 0 -500z"/>
<path d="M8110 1895 c-126 -39 -183 -160 -129 -272 27 -56 92 -94 211 -123 98
-25 138 -49 138 -85 0 -58 -39 -85 -124 -85 -44 0 -60 5 -85 25 -16 14 -33 35
-36 45 -6 17 -16 20 -76 20 -79 0 -82 -5 -50 -75 51 -109 174 -162 316 -135
151 28 222 129 185 262 -21 73 -85 112 -266 158 -23 5 -53 19 -68 31 -61 48
-11 119 85 119 35 0 47 -6 75 -35 31 -33 36 -35 99 -35 l67 0 -7 33 c-4 17
-13 44 -21 58 -45 88 -192 132 -314 94z"/>
<path d="M9741 1889 c-53 -17 -76 -32 -126 -82 -44 -44 -67 -77 -79 -112 -67
-198 15 -397 193 -466 77 -31 194 -31 272 -1 144 57 227 193 217 356 -10 151
-95 261 -237 306 -79 25 -158 25 -240 -1z m217 -148 c72 -37 112 -102 112
-181 0 -125 -83 -210 -205 -210 -219 0 -286 290 -90 393 43 23 137 22 183 -2z"/>
<path d="M10637 1900 c-194 -49 -300 -255 -237 -461 19 -63 30 -81 83 -134 74
-74 136 -99 242 -99 78 0 150 25 198 71 l27 27 0 -42 0 -42 75 0 75 0 0 340 0
341 -72 -3 -73 -3 -3 -43 -3 -44 -27 28 c-58 58 -189 88 -285 64z m201 -159
c72 -37 112 -102 112 -183 -1 -124 -85 -208 -209 -208 -62 0 -89 10 -135 51
-52 45 -69 84 -69 154 0 124 79 205 200 205 43 0 76 -6 101 -19z"/>
<path d="M7610 1560 l0 -340 75 0 75 0 -2 338 -3 337 -72 3 -73 3 0 -341z"/>
</g>
</svg>
