<svg xmlns="http://www.w3.org/2000/svg" version="1.0" width="590.000000" height="592.000000" preserveAspectRatio="xMidYMid meet"><rect id="backgroundrect" width="100%" height="100%" x="0" y="0" fill="none" stroke="none"/>


<g class="currentLayer" style=""><title>Layer 1</title><g transform="translate(0,592) scale(0.10000000149011612,-0.10000000149011612) " fill="#184772" stroke="none" id="svg_1" class="selected" fill-opacity="1">
<path d="M2643 5880 c-676 -71 -1294 -363 -1774 -840 -671 -666 -977 -1605 -828 -2540 94 -584 363 -1126 774 -1557 276 -290 613 -524 971 -673 54 -23 108 -45 119 -50 40 -17 182 -62 290 -90 246 -65 482 -94 755 -93 775 2 1512 311 2062 864 437 440 727 1020 819 1639 30 199 36 532 15 720 -41 348 -101 577 -231 878 -296 683 -858 1237 -1551 1528 -218 91 -444 155 -692 195 -143 23 -581 34 -729 19z m527 -96 c52 -3 148 -14 213 -25 1047 -170 1900 -899 2242 -1914 33 -100 86 -326 106 -456 27 -171 36 -509 20 -687 -92 -984 -689 -1849 -1576 -2281 -214 -105 -470 -192 -690 -235 -318 -63 -726 -67 -1045 -10 -810 142 -1527 641 -1948 1355 -288 487 -420 1046 -382 1614 30 461 157 874 391 1268 51 86 169 260 189 277 3 3 18 23 35 45 88 119 332 358 482 471 147 111 158 118 301 203 382 226 833 360 1282 381 153 7 193 6 380 -6z" id="svg_2" fill="#184772"/>
<path d="M2580 5551 c0 -16 -28 -20 -65 -10 -43 12 -85 -8 -85 -41 0 -24 13 -26 31 -4 10 12 23 14 61 9 39 -6 53 -4 69 11 23 20 25 44 4 44 -8 0 -15 -4 -15 -9z" id="svg_3" fill="#184772"/>
<path d="M2935 5475 c-75 -41 -115 -111 -115 -205 0 -111 64 -198 161 -219 142 -31 248 64 249 219 0 80 -27 139 -83 184 -33 27 -48 31 -110 34 -52 2 -80 -2 -102 -13z m175 -47 c49 -34 70 -81 70 -156 0 -108 -42 -167 -128 -181 -64 -10 -118 11 -153 60 -36 51 -39 158 -7 218 42 79 147 107 218 59z" id="svg_4" fill="#184772"/>
<path d="M2513 5450 c-13 -5 -23 -13 -23 -17 0 -5 -11 -58 -25 -118 -47 -203 -65 -289 -65 -303 0 -8 9 -12 22 -10 19 3 25 14 38 73 l15 70 80 12 c44 6 88 12 97 12 10 1 29 -21 50 -59 25 -46 38 -60 55 -60 13 0 23 5 23 11 0 8 -151 272 -216 377 -16 24 -19 25 -51 12z m76 -141 c28 -50 48 -95 45 -100 -3 -5 -20 -9 -37 -9 -18 0 -49 -4 -69 -9 -45 -11 -49 -3 -32 61 6 26 15 70 19 98 4 27 11 50 15 50 5 0 31 -41 59 -91z" id="svg_5" fill="#184772"/>
<path d="M3662 5357 c-77 -85 -263 -331 -258 -343 10 -27 34 -14 76 41 23 30 46 55 51 55 23 0 171 -54 174 -64 2 -6 6 -37 9 -68 5 -67 10 -78 37 -78 17 0 19 5 14 53 -11 115 -25 295 -27 345 -1 29 -6 56 -12 61 -26 19 -45 19 -64 -2z m40 -139 c2 -57 1 -106 -2 -110 -8 -10 -133 26 -137 39 -4 12 115 173 128 173 4 0 9 -46 11 -102z" id="svg_6" fill="#184772"/>
<path d="M2005 5321 c-77 -35 -125 -106 -125 -185 0 -76 65 -187 130 -221 129 -67 299 33 300 177 0 47 -30 128 -65 174 -54 70 -156 94 -240 55z m132 -32 c70 -26 117 -104 117 -196 1 -74 -19 -107 -85 -141 -80 -42 -164 -9 -209 83 -42 86 -39 150 7 206 45 53 109 71 170 48z" id="svg_7" fill="#184772"/>
<path d="M3996 5242 c-3 -5 -26 -48 -51 -98 -26 -49 -68 -128 -93 -177 -27 -52 -42 -91 -36 -96 24 -23 216 -112 229 -107 30 11 13 27 -74 71 -49 24 -92 49 -95 54 -3 5 33 82 80 171 46 90 83 169 80 177 -6 14 -32 18 -40 5z" id="svg_8" fill="#184772"/>
<path d="M1671 5161 c-18 -12 -18 -12 83 -176 47 -77 86 -148 86 -158 0 -25 -48 -67 -76 -67 -13 0 -32 10 -43 21 -12 13 -26 19 -35 16 -45 -17 15 -82 74 -82 48 0 89 28 114 79 19 38 19 39 -3 84 -31 63 -171 292 -179 292 -4 0 -13 -4 -21 -9z" id="svg_9" fill="#184772"/>
<path d="M4299 5007 c-25 -34 -80 -108 -123 -165 -42 -56 -76 -108 -75 -115 0 -14 128 -107 181 -133 47 -22 96 -13 133 26 29 31 36 71 20 117 -8 24 -5 26 48 37 30 7 67 57 67 91 0 39 -36 84 -115 144 -43 34 -82 61 -85 61 -3 -1 -26 -29 -51 -63z m131 -46 c25 -19 50 -42 57 -51 32 -39 -5 -110 -57 -110 -21 0 -104 52 -143 90 -12 11 73 121 87 113 6 -3 31 -22 56 -42z m-128 -133 c102 -81 119 -119 77 -172 -24 -31 -71 -35 -110 -8 -15 9 -45 29 -68 45 -22 15 -41 32 -41 37 0 10 90 130 97 130 3 0 23 -15 45 -32z" id="svg_10" fill="#184772"/>
<path d="M2785 4854 c-16 -2 -68 -9 -115 -15 -393 -52 -779 -243 -1068 -528 -549 -543 -713 -1361 -417 -2076 173 -418 496 -761 913 -970 724 -362 1615 -210 2183 372 417 427 603 987 528 1583 -76 599 -463 1146 -1010 1427 -178 92 -357 151 -569 189 -82 14 -383 27 -445 18z m445 -117 c730 -128 1304 -678 1459 -1400 173 -808 -234 -1635 -982 -1992 -229 -110 -442 -163 -692 -172 -409 -15 -745 78 -1081 299 -92 61 -269 210 -319 269 -201 237 -303 409 -384 652 -70 206 -86 310 -86 567 0 177 4 245 18 320 150 779 751 1353 1537 1466 118 17 410 12 530 -9z" id="svg_11" fill="#184772"/>
<path d="M3358 4335 c-13 -30 1 -124 33 -214 25 -72 24 -80 -8 -87 -169 -36 -312 -125 -363 -224 -51 -99 -64 -285 -27 -357 27 -50 93 -109 192 -167 527 -315 521 -310 512 -392 -4 -41 -64 -150 -136 -247 -39 -53 -348 -332 -388 -350 -17 -8 -37 -37 -62 -92 -38 -80 -74 -125 -145 -178 -20 -16 -41 -38 -45 -48 -10 -28 4 -160 18 -169 7 -4 66 -5 131 -2 134 5 170 -6 170 -53 0 -33 -36 -58 -63 -43 -13 7 -43 8 -86 2 -126 -15 -261 -11 -323 11 l-58 19 -31 -23 c-40 -30 -91 -31 -146 -2 -54 27 -78 27 -135 -4 -55 -29 -80 -31 -118 -8 -27 16 -31 16 -64 -2 -29 -16 -37 -17 -50 -6 -47 39 11 71 129 71 87 0 139 14 163 43 8 9 18 64 24 124 17 167 19 156 -27 166 -22 6 -58 25 -79 43 -52 44 -120 71 -140 55 -10 -8 -13 -23 -9 -46 10 -65 -4 -101 -48 -123 -44 -22 -75 -19 -89 8 -5 9 -12 48 -15 86 -11 124 -6 118 -80 111 -78 -7 -121 -28 -143 -69 -35 -64 -72 -98 -108 -98 -48 0 -66 30 -53 90 20 91 94 185 198 254 62 41 70 49 76 86 16 94 123 207 257 270 56 27 62 33 84 86 41 100 128 167 256 196 41 9 92 39 231 136 98 68 181 131 184 139 3 8 1 19 -4 24 -7 7 -67 -31 -179 -110 -150 -107 -179 -124 -254 -146 -98 -29 -166 -59 -195 -84 -50 -43 -79 -83 -95 -132 -9 -29 -23 -56 -31 -61 -99 -55 -174 -106 -207 -142 -45 -48 -92 -134 -92 -166 0 -13 -20 -35 -57 -63 -104 -78 -144 -121 -194 -205 -60 -102 -66 -127 -40 -169 38 -61 159 -68 210 -13 15 15 38 46 54 69 32 49 69 70 91 52 8 -7 19 -49 26 -99 18 -123 16 -122 106 -122 73 0 75 1 119 41 26 24 45 51 47 67 3 31 29 40 50 18 8 -8 33 -23 54 -33 43 -20 42 -19 29 -130 -4 -33 -11 -67 -16 -74 -4 -8 -61 -20 -146 -31 -136 -17 -139 -18 -170 -53 -41 -43 -41 -66 -2 -99 39 -33 71 -41 110 -27 41 14 107 14 148 0 27 -10 43 -8 86 6 52 18 53 18 114 -5 66 -24 117 -23 172 5 30 16 81 11 175 -15 35 -10 49 -9 100 10 91 33 102 34 144 15 49 -22 82 -11 134 45 57 61 47 113 -27 152 -35 18 -57 21 -139 20 -89 -1 -99 0 -109 19 -21 39 -3 82 51 122 65 49 135 139 152 195 12 41 28 57 163 167 83 68 177 153 210 191 33 37 75 84 93 103 40 43 100 162 108 213 8 50 -30 115 -98 169 -29 22 -162 107 -297 187 -135 81 -260 159 -277 175 -44 38 -65 96 -65 178 -1 120 48 235 123 292 89 68 260 115 315 86 41 -21 98 -118 112 -188 13 -68 28 -76 55 -30 24 40 15 86 -30 160 -19 31 -34 62 -34 68 0 14 87 14 166 0 126 -22 227 -77 259 -140 8 -15 15 -30 15 -32 0 -2 -28 -14 -62 -27 -127 -46 -198 -105 -244 -204 -22 -46 -24 -64 -24 -194 0 -152 -6 -177 -46 -192 -25 -10 -33 -39 -11 -41 27 -3 43 4 74 31 18 16 66 39 113 54 44 14 95 35 113 47 54 38 116 112 132 159 14 41 31 163 38 265 l2 40 60 3 c33 2 89 -2 124 -8 74 -13 90 -5 61 32 -23 29 -103 48 -207 48 l-61 0 -55 63 c-101 115 -216 163 -414 174 l-112 6 -10 31 c-5 17 -20 78 -32 136 -13 58 -27 111 -32 118 -16 20 -47 14 -59 -13z m673 -627 c17 -32 6 -173 -20 -240 -36 -94 -133 -175 -233 -195 -40 -8 -48 6 -48 85 0 97 19 203 45 248 51 88 226 158 256 102z" id="svg_12" fill="#184772"/>
<path d="M3830 3593 c-47 -45 -48 -118 0 -143 17 -9 26 -8 45 4 56 37 68 119 22 151 -29 20 -32 19 -67 -12z" id="svg_13" fill="#184772"/>
<path d="M3435 3714 c-45 -48 -25 -154 29 -154 41 0 94 85 79 128 -20 56 -70 68 -108 26z" id="svg_14" fill="#184772"/>
<path d="M2850 3179 c-70 -40 -90 -58 -90 -79 0 -12 -33 -33 -102 -68 -268 -134 -286 -148 -254 -197 9 -13 16 -27 16 -29 0 -3 -19 -15 -42 -27 -58 -29 -148 -101 -148 -117 0 -16 39 4 122 59 31 22 64 39 72 39 31 0 25 -21 -16 -50 -44 -32 -255 -138 -320 -161 -21 -7 -38 -19 -38 -26 0 -16 -5 -17 60 8 68 26 165 74 268 134 83 47 97 52 107 35 18 -28 -54 -68 -308 -171 -150 -60 -205 -89 -168 -89 5 0 115 43 243 96 284 116 287 118 295 110 15 -14 -31 -37 -232 -115 -115 -45 -230 -90 -255 -100 -25 -10 -56 -24 -70 -29 -14 -6 -19 -11 -12 -11 19 -1 241 77 437 154 94 37 177 69 186 72 17 5 36 -13 26 -24 -8 -8 -366 -144 -492 -187 -211 -72 -255 -89 -255 -97 0 -18 43 -7 202 50 519 187 614 221 626 221 29 0 8 -29 -30 -43 -181 -64 -325 -114 -458 -160 -85 -30 -156 -59 -158 -66 -5 -16 13 -12 303 81 138 44 285 91 327 103 114 35 223 85 385 177 293 167 348 277 204 411 -81 75 -186 119 -296 124 -75 4 -83 2 -135 -28z m122 -199 c85 -27 161 -57 168 -65 7 -8 18 -15 26 -15 16 0 34 -31 34 -58 0 -25 -100 -120 -186 -175 -77 -49 -175 -97 -198 -97 -33 0 -24 21 20 47 93 56 259 166 266 177 17 26 -16 15 -80 -28 -131 -86 -293 -149 -340 -131 -15 6 -15 8 2 21 11 8 27 14 35 14 17 0 285 130 315 153 12 9 17 20 13 31 -6 14 -13 11 -55 -18 -105 -76 -297 -146 -399 -146 -63 0 -58 25 8 34 28 4 71 16 97 27 26 11 36 18 22 15 -39 -7 -90 -14 -147 -21 -43 -5 -53 -3 -53 9 0 10 16 19 43 26 83 21 173 53 220 78 64 34 122 85 113 100 -9 15 -32 6 -91 -39 -94 -70 -217 -119 -301 -119 -44 0 -21 21 56 51 98 38 253 121 251 134 -4 19 -43 5 -149 -54 -59 -33 -128 -65 -153 -72 -47 -12 -83 -7 -77 11 2 5 68 43 148 84 180 93 183 93 392 26z" id="svg_15" fill="#184772"/>
<path d="M2909 2877 c-25 -23 -72 -57 -105 -75 -58 -33 -57 -34 21 -5 54 19 150 85 150 102 0 27 -20 20 -66 -22z" id="svg_16" fill="#184772"/>
<path d="M2770 2160 c-147 -160 -219 -250 -226 -285 -9 -50 -1 -76 29 -99 27 -20 29 -20 95 -3 38 10 94 17 125 16 60 -2 87 11 87 42 0 11 -9 53 -20 93 -28 104 -28 190 -1 251 48 108 21 104 -89 -15z" id="svg_17" fill="#184772"/>
<path d="M1218 4808 c-46 -12 -126 -81 -144 -125 -8 -18 -14 -51 -14 -73 0 -115 126 -240 242 -240 100 0 197 103 198 209 0 93 -84 197 -183 226 -28 8 -53 15 -56 14 -3 -1 -23 -6 -43 -11z m107 -57 c52 -23 111 -89 126 -140 16 -54 1 -106 -45 -150 -48 -46 -124 -55 -184 -21 -50 28 -108 103 -117 151 -12 63 31 134 100 165 41 18 73 17 120 -5z" id="svg_18" fill="#184772"/>
<path d="M4555 4626 l-149 -144 71 -78 c39 -44 89 -96 111 -117 35 -34 40 -36 52 -22 12 14 1 28 -80 110 l-94 95 44 46 c73 75 68 75 162 -22 73 -75 85 -84 97 -71 11 14 1 28 -70 102 l-83 86 53 52 52 52 88 -92 c89 -93 105 -104 114 -80 5 14 -191 228 -208 227 -5 -1 -77 -66 -160 -144z" id="svg_19" fill="#184772"/>
<path d="M875 4463 c-117 -167 -155 -227 -151 -239 10 -25 31 -14 59 30 48 77 39 79 208 -40 146 -102 178 -115 182 -79 0 6 -66 56 -148 113 -82 56 -152 107 -156 114 -4 6 10 35 32 65 22 29 37 58 34 63 -12 20 -34 9 -60 -27z" id="svg_20" fill="#184772"/>
<path d="M4915 4344 c-55 -36 -133 -86 -172 -111 -40 -25 -73 -49 -73 -53 0 -4 7 -13 15 -20 11 -9 26 -5 75 26 34 21 63 41 66 46 14 22 45 5 70 -37 33 -57 29 -86 -22 -197 -29 -60 -35 -84 -28 -96 15 -24 33 -26 40 -5 4 10 20 48 35 85 16 36 29 78 29 92 0 32 7 32 36 5 55 -51 146 -32 179 38 21 43 11 79 -47 169 -24 38 -52 81 -61 97 -10 15 -23 27 -30 26 -6 0 -57 -30 -112 -65z m130 -16 c47 -66 85 -135 85 -154 0 -12 -9 -33 -21 -48 -16 -20 -29 -26 -59 -26 -33 0 -43 6 -67 38 -46 59 -84 123 -81 132 3 10 108 79 120 80 4 0 14 -10 23 -22z" id="svg_21" fill="#184772"/>
<path d="M585 3973 l-17 -26 158 -160 c88 -89 160 -164 162 -167 2 -3 10 4 18 15 13 18 10 23 -37 71 l-51 52 18 43 c11 24 28 62 39 84 l20 40 70 3 c69 3 95 13 95 37 0 10 -46 14 -187 19 -104 4 -207 8 -230 11 -36 4 -43 1 -58 -22z m264 -39 c6 -6 -53 -134 -63 -134 -10 0 -149 128 -155 143 -3 8 208 0 218 -9z" id="svg_22" fill="#184772"/>
<path d="M5246 3992 c-3 -6 5 -35 19 -66 14 -31 25 -60 25 -65 0 -4 -55 -29 -122 -56 -214 -84 -233 -93 -236 -109 -7 -33 32 -26 193 38 91 36 172 66 179 66 8 0 24 -27 36 -60 25 -67 33 -76 48 -57 15 17 -98 311 -120 315 -9 2 -19 -1 -22 -6z" id="svg_23" fill="#184772"/>
<path d="M467 3663 c-4 -3 -7 -14 -7 -23 0 -15 98 -44 298 -86 13 -3 22 -9 20 -15 -2 -6 -84 -40 -183 -76 -99 -36 -186 -70 -192 -75 -21 -17 -16 -58 7 -58 11 0 103 -21 206 -46 152 -38 188 -44 195 -33 20 32 27 29 -166 73 -146 32 -179 48 -133 61 13 4 99 35 191 68 143 53 169 65 174 86 7 28 -2 35 -75 51 -66 14 -290 68 -313 75 -8 3 -18 2 -22 -2z" id="svg_24" fill="#184772"/>
<path d="M5177 3516 c-42 -15 -63 -30 -92 -65 -37 -44 -44 -66 -45 -125 0 -75 34 -141 93 -179 35 -23 52 -27 114 -27 83 0 124 14 176 59 100 88 75 271 -45 330 -52 25 -142 28 -201 7z m192 -50 c78 -41 100 -178 38 -237 -61 -59 -190 -78 -255 -39 -85 52 -98 177 -24 243 48 44 184 62 241 33z" id="svg_25" fill="#184772"/>
<path d="M725 3145 c-27 -18 -68 -49 -91 -69 -23 -20 -44 -36 -48 -36 -3 0 -6 11 -6 25 0 42 -49 86 -101 92 -41 5 -50 2 -79 -24 -38 -34 -48 -80 -49 -229 l-1 -81 73 -5 c39 -3 136 -6 214 -7 144 -2 168 4 143 34 -9 11 -36 15 -101 15 l-89 0 0 59 c0 71 12 86 122 155 73 45 97 73 83 96 -9 14 -14 12 -70 -25z m-199 -60 c23 -24 25 -30 22 -122 l-3 -98 -75 0 -75 0 0 98 c0 96 1 100 28 123 36 31 71 31 103 -1z" id="svg_26" fill="#184772"/>
<path d="M5085 2860 c-15 -25 17 -40 86 -40 88 0 121 -12 115 -42 -3 -13 -8 -58 -11 -100 -6 -73 -5 -78 13 -78 15 0 21 9 26 46 3 26 6 70 6 99 0 36 5 55 14 58 22 9 135 -5 139 -17 2 -6 -1 -57 -6 -114 -7 -76 -7 -106 2 -115 19 -19 29 4 35 78 3 39 9 100 12 137 l6 66 -44 6 c-61 9 -293 26 -344 26 -23 0 -46 -5 -49 -10z" id="svg_27" fill="#184772"/>
<path d="M761 2731 c-12 -8 -11 -26 4 -122 9 -62 19 -119 22 -126 6 -15 -23 -27 -95 -40 -36 -7 -55 -6 -61 1 -5 6 -14 57 -21 113 -15 114 -19 126 -43 117 -20 -7 -20 -3 2 -132 12 -71 14 -105 7 -111 -6 -5 -39 -12 -72 -16 l-62 -7 -11 64 c-6 34 -14 91 -18 125 -6 62 -21 84 -42 60 -7 -9 -3 -57 13 -155 13 -79 25 -145 27 -147 2 -2 56 5 119 15 63 10 157 24 208 31 90 12 92 12 92 39 0 44 -39 283 -47 291 -5 5 -14 4 -22 0z" id="svg_28" fill="#184772"/>
<path d="M5067 2553 c-18 -18 -2 -43 49 -77 63 -42 62 -37 29 -156 -17 -63 -35 -80 -84 -80 -54 0 -80 -10 -87 -32 -3 -11 -4 -22 -1 -24 4 -5 113 9 382 47 64 9 95 25 95 50 0 11 -66 62 -198 155 -63 43 -127 89 -142 102 -30 24 -33 25 -43 15z m218 -193 c30 -22 66 -45 80 -52 42 -19 31 -38 -22 -39 -27 0 -73 -4 -103 -9 -30 -4 -59 -4 -63 0 -13 12 23 140 40 140 7 0 38 -18 68 -40z" id="svg_29" fill="#184772"/>
<path d="M445 2231 c-3 -6 18 -80 47 -165 41 -122 57 -156 71 -156 22 0 22 14 -2 83 -15 42 -17 58 -8 64 7 4 88 32 182 63 123 41 171 61 173 73 7 33 -30 28 -193 -27 -91 -31 -172 -56 -179 -56 -8 0 -20 17 -26 38 -22 70 -32 92 -46 92 -7 0 -15 -4 -19 -9z" id="svg_30" fill="#184772"/>
<path d="M4947 2123 c-19 -18 0 -37 71 -70 42 -21 80 -41 83 -46 9 -13 -39 -95 -67 -113 -12 -9 -64 -21 -115 -28 -77 -11 -95 -17 -112 -37 l-19 -24 28 -3 c25 -2 106 11 196 34 26 6 27 5 21 -30 -16 -103 104 -170 179 -99 23 21 128 218 128 240 0 5 -369 183 -379 183 -4 0 -11 -3 -14 -7z m278 -170 c30 -15 55 -32 55 -38 0 -20 -61 -139 -83 -162 -43 -47 -127 -16 -127 47 0 39 66 180 85 180 8 0 39 -12 70 -27z" id="svg_31" fill="#184772"/>
<path d="M941 1979 c-50 -116 -90 -197 -99 -203 -5 -3 -56 1 -113 9 -129 18 -129 18 -129 0 0 -21 31 -31 115 -39 86 -9 105 -14 105 -29 0 -6 -18 -47 -41 -90 -35 -68 -40 -83 -30 -104 6 -13 15 -22 19 -19 5 3 31 53 57 111 55 120 37 112 205 90 62 -8 115 -13 117 -11 3 2 0 13 -6 24 -11 21 -36 27 -163 38 -43 4 -78 11 -78 16 0 4 20 49 45 98 48 96 54 120 30 140 -12 10 -18 5 -34 -31z" id="svg_32" fill="#184772"/>
<path d="M4739 1740 c-1 -5 -2 -14 -3 -19 -1 -10 339 -231 354 -231 4 0 13 6 19 14 14 16 -7 31 -225 169 -121 76 -143 86 -145 67z" id="svg_33" fill="#184772"/>
<path d="M4689 1654 c-9 -11 -10 -20 -3 -32 6 -9 23 -38 37 -63 l27 -46 -32 -39 c-18 -21 -47 -54 -64 -73 l-31 -34 -63 21 c-59 20 -65 21 -82 5 -10 -9 -18 -19 -18 -23 0 -4 30 -15 68 -25 37 -10 134 -40 217 -66 l149 -48 23 21 22 21 -30 51 c-16 28 -66 117 -111 199 -45 81 -85 147 -89 147 -3 0 -12 -7 -20 -16z m121 -241 c18 -32 43 -73 57 -91 29 -39 24 -50 -15 -35 -15 6 -60 22 -99 34 -42 14 -73 29 -73 37 0 14 80 112 92 112 3 0 21 -26 38 -57z" id="svg_34" fill="#184772"/>
<path d="M1154 1645 c-4 -9 16 -43 52 -87 33 -39 70 -84 83 -101 l25 -30 -55 -48 c-30 -27 -59 -49 -65 -49 -6 0 -43 41 -83 90 -40 50 -77 90 -82 90 -5 0 -12 -7 -15 -15 -4 -9 20 -47 65 -99 39 -47 71 -91 71 -98 -1 -13 -91 -88 -107 -88 -4 0 -42 43 -83 95 -41 52 -81 95 -88 95 -29 0 -23 -32 14 -73 22 -23 64 -73 94 -110 30 -37 60 -66 68 -65 20 4 321 251 322 264 0 5 -19 33 -42 61 -24 27 -67 80 -97 117 -57 69 -68 76 -77 51z" id="svg_35" fill="#184772"/>
<path d="M3342 813 c-53 -26 -86 -113 -43 -113 13 0 23 11 31 35 28 85 150 77 150 -11 0 -24 -8 -39 -31 -58 -17 -14 -35 -26 -40 -26 -5 0 -9 -7 -9 -16 0 -13 7 -15 34 -10 47 9 83 -8 102 -48 47 -97 -81 -187 -150 -105 -19 22 -31 29 -46 24 -28 -9 -25 -18 15 -54 66 -57 136 -54 197 10 33 34 38 46 38 85 0 47 -29 104 -53 104 -7 0 -19 4 -26 9 -13 8 -12 14 4 44 22 42 15 79 -25 118 -23 23 -37 29 -72 29 -24 0 -58 -8 -76 -17z" id="svg_36" fill="#184772"/>
<path d="M2505 804 c-11 -9 -42 -27 -70 -41 -27 -14 -53 -31 -57 -37 -15 -23 10 -26 55 -7 26 11 49 16 52 12 2 -5 -9 -70 -25 -145 -17 -75 -30 -147 -30 -161 0 -26 17 -42 30 -29 6 7 90 396 90 419 0 10 -26 4 -45 -11z" id="svg_37" fill="#184772"/>
<path d="M2725 775 c-41 -21 -63 -49 -75 -97 -15 -52 -5 -92 32 -133 41 -47 88 -55 145 -25 24 13 46 20 49 17 11 -11 -29 -111 -54 -134 -28 -25 -79 -31 -103 -11 -9 7 -23 25 -32 40 -17 28 -47 29 -47 3 0 -26 52 -75 91 -85 83 -23 158 34 179 134 27 131 8 236 -51 279 -36 26 -97 32 -134 12z m115 -43 c26 -21 40 -84 28 -127 -18 -67 -98 -87 -149 -36 -47 47 -37 129 19 164 35 22 74 21 102 -1z" id="svg_38" fill="#184772"/>
<path d="M3119 786 c-2 -2 -37 -6 -77 -9 -75 -5 -100 -16 -87 -37 5 -8 37 -9 111 -4 57 4 104 4 104 1 0 -3 -18 -38 -40 -79 -39 -73 -80 -213 -80 -276 0 -29 3 -33 23 -30 19 3 23 11 28 68 10 99 67 251 120 319 33 41 25 51 -39 51 -32 0 -61 -2 -63 -4z" id="svg_39" fill="#184772"/>
</g></g></svg>