<?xml version="1.0" standalone="no"?>
<!DOCTYPE svg PUBLIC "-//W3C//DTD SVG 20010904//EN"
 "http://www.w3.org/TR/2001/REC-SVG-20010904/DTD/svg10.dtd">
<svg version="1.0" xmlns="http://www.w3.org/2000/svg"
 width="1181.000000pt" height="374.000000pt" viewBox="0 0 1181.000000 374.000000"
 preserveAspectRatio="xMidYMid meet">

<g transform="translate(0.000000,374.000000) scale(0.100000,-0.100000)"
fill="#000000" stroke="none">
<path d="M6820 3220 l0 -520 105 0 105 0 0 229 0 229 48 23 c62 31 124 31 154
1 22 -22 23 -28 26 -252 l3 -230 105 0 105 0 -3 268 -3 267 -28 47 c-18 31
-44 57 -75 75 -41 24 -57 28 -128 28 -71 0 -88 -4 -142 -32 l-62 -32 0 210 0
209 -105 0 -105 0 0 -520z"/>
<path d="M9540 3220 c0 -423 2 -520 13 -520 7 0 40 5 73 11 48 9 71 8 132 -6
271 -64 485 107 470 376 -6 94 -39 170 -100 224 -99 90 -227 107 -365 49 -10
-5 -13 37 -13 190 l0 196 -105 0 -105 0 0 -520z m406 -30 c105 -65 93 -260
-20 -311 -47 -21 -85 -23 -138 -8 l-38 10 0 149 0 149 28 15 c41 23 128 20
168 -4z"/>
<path d="M10874 3666 c-29 -29 -34 -41 -34 -79 0 -83 79 -142 155 -117 47 16
85 63 85 106 0 75 -49 124 -126 124 -39 0 -51 -5 -80 -34z"/>
<path d="M3 2838 c3 -755 5 -864 20 -948 21 -113 62 -277 79 -319 l13 -30 70
45 c39 25 76 49 83 53 11 6 2 31 -38 111 -40 81 -49 105 -38 112 30 20 295
147 318 153 24 6 27 2 58 -87 18 -51 36 -99 41 -106 7 -11 24 -8 87 14 43 15
83 31 88 35 5 4 -3 54 -18 115 -20 78 -24 109 -15 114 14 9 201 56 296 74 l71
13 12 -81 c6 -44 14 -96 17 -115 l6 -33 71 6 c39 4 85 9 102 12 l32 6 -4 66
c-3 37 -6 88 -8 114 -3 44 -2 46 27 52 39 8 316 7 345 -1 24 -6 24 -6 17 -119
l-7 -113 33 -5 c19 -4 65 -7 103 -9 l70 -2 17 110 c10 61 18 111 18 111 2 4
222 -45 298 -66 l81 -22 -29 -110 c-16 -61 -28 -112 -26 -114 4 -4 168 -64
175 -64 4 0 23 46 42 101 19 56 41 104 47 106 16 6 343 -152 343 -167 0 -6
-20 -51 -45 -100 -25 -49 -45 -94 -45 -98 0 -9 160 -115 165 -110 9 9 56 198
74 293 36 191 41 329 41 1103 l0 752 -1546 0 -1545 0 4 -852z m677 626 c0 -35
1 -35 38 -32 34 3 37 6 40 36 3 26 8 32 27 32 19 0 24 -6 27 -32 3 -31 5 -33
43 -33 38 0 40 2 43 33 3 28 7 32 33 32 l30 0 -3 -77 -3 -78 -167 -3 -168 -2
0 80 0 80 30 0 c28 0 30 -3 30 -36z m1502 4 c3 -30 6 -33 41 -36 36 -3 37 -3
37 32 0 33 2 36 30 36 28 0 30 -3 30 -35 0 -34 1 -35 40 -35 39 0 40 1 40 35
0 32 2 35 30 35 l30 0 0 -80 0 -80 -167 2 -168 3 -3 78 -3 77 30 0 c26 0 30
-4 33 -32z m-1942 -223 c0 -34 1 -35 40 -35 39 0 40 1 40 35 0 32 2 35 30 35
28 0 30 -3 30 -35 0 -34 1 -35 40 -35 39 0 40 1 40 35 0 32 2 35 30 35 l30 0
0 -80 0 -80 -170 0 -170 0 0 80 0 80 30 0 c28 0 30 -3 30 -35z m640 -105 l0
-140 -95 0 -95 0 0 140 0 140 95 0 95 0 0 -140z m230 105 c0 -34 1 -35 40 -35
39 0 40 1 40 35 0 32 2 35 30 35 28 0 30 -3 30 -35 0 -34 1 -35 40 -35 39 0
40 1 40 35 0 32 2 35 30 35 l30 0 0 -80 0 -80 -170 0 -170 0 0 80 0 80 30 0
c28 0 30 -3 30 -35z m640 0 c0 -34 1 -35 40 -35 39 0 40 1 40 35 0 32 2 35 30
35 28 0 30 -3 30 -35 0 -34 1 -35 40 -35 39 0 40 1 40 35 0 32 2 35 30 35 l30
0 0 -80 0 -80 -170 0 -170 0 0 80 0 80 30 0 c28 0 30 -3 30 -35z m640 -105 l0
-140 -100 0 -100 0 0 133 c0 74 3 137 7 140 3 4 48 7 100 7 l93 0 0 -140z
m230 105 c0 -34 1 -35 40 -35 39 0 40 1 40 35 0 32 2 35 30 35 28 0 30 -3 30
-35 0 -34 1 -35 40 -35 39 0 40 1 40 35 0 32 2 35 30 35 l30 0 0 -80 0 -80
-170 0 -170 0 0 80 0 80 30 0 c28 0 30 -3 30 -35z m-2170 -372 c1 -144 4 -194
15 -213 28 -48 24 -50 -115 -50 -71 0 -130 2 -130 4 0 2 7 20 15 39 11 28 15
79 15 215 0 98 3 182 7 185 3 4 48 7 100 7 l93 0 0 -187z m870 0 c1 -144 4
-194 15 -213 28 -48 24 -50 -115 -50 -71 0 -130 2 -130 5 0 3 7 22 15 42 11
27 15 78 15 219 l0 184 100 0 100 0 0 -187z m640 -13 c3 -129 9 -202 18 -217
6 -12 12 -24 12 -27 0 -3 -58 -6 -130 -6 -139 0 -143 2 -115 50 11 19 14 69
15 213 l0 188 98 -3 97 -3 5 -195z m870 0 c3 -129 9 -202 18 -217 6 -12 12
-24 12 -27 0 -3 -58 -6 -130 -6 -139 0 -143 2 -115 50 11 19 14 69 15 213 l0
188 98 -3 97 -3 5 -195z m-2220 44 c0 -35 1 -35 38 -32 34 3 37 6 40 36 3 28
7 32 33 32 27 0 29 -3 29 -36 0 -35 1 -35 38 -32 34 3 37 6 40 36 3 26 8 32
27 32 19 0 24 -6 27 -32 3 -31 5 -33 43 -33 38 0 40 2 43 33 3 29 6 32 38 32
l34 0 0 -120 c0 -101 -3 -127 -20 -160 -16 -32 -20 -59 -20 -150 l0 -110 -55
0 -55 0 0 144 c0 139 -1 146 -25 174 -13 16 -38 35 -54 42 -27 11 -35 9 -66
-10 -62 -38 -65 -49 -65 -207 l0 -143 -55 0 -55 0 0 108 c0 85 -5 116 -20 151
-16 35 -20 65 -20 162 l0 119 40 0 c39 0 40 -1 40 -36z m1502 4 c3 -30 6 -33
41 -36 36 -3 37 -3 37 32 0 33 2 36 29 36 26 0 30 -4 33 -32 3 -30 6 -33 41
-36 36 -3 37 -3 37 32 0 33 2 36 29 36 26 0 30 -4 33 -32 3 -30 6 -33 41 -36
36 -3 37 -3 37 32 0 35 1 36 40 36 l40 0 0 -120 c0 -109 -2 -126 -25 -170 -22
-43 -25 -62 -25 -150 l0 -100 -50 0 -50 0 0 143 c0 158 -3 169 -65 207 -31 19
-40 20 -64 10 -16 -6 -42 -25 -57 -41 -29 -30 -29 -31 -32 -175 l-3 -144 -50
0 -49 0 0 105 c0 86 -4 113 -20 145 -17 33 -20 59 -20 165 l0 125 34 0 c32 0
35 -3 38 -32z m-1622 -433 l0 -75 -140 0 -140 0 0 75 0 75 140 0 140 0 0 -75z
m870 0 l0 -75 -140 0 -140 0 0 75 0 75 140 0 140 0 0 -75z m640 0 l0 -75 -140
0 -140 0 0 75 0 75 140 0 140 0 0 -75z m870 0 l0 -75 -140 0 -140 0 0 75 0 75
140 0 140 0 0 -75z"/>
<path d="M740 3140 l0 -80 40 0 40 0 0 80 0 80 -40 0 -40 0 0 -80z"/>
<path d="M2250 3140 l0 -80 40 0 40 0 0 80 0 80 -40 0 -40 0 0 -80z"/>
<path d="M310 2920 l0 -80 40 0 40 0 0 80 0 80 -40 0 -40 0 0 -80z"/>
<path d="M1180 2920 l0 -80 40 0 40 0 0 80 0 80 -40 0 -40 0 0 -80z"/>
<path d="M1820 2920 l0 -80 40 0 40 0 0 80 0 80 -40 0 -40 0 0 -80z"/>
<path d="M2690 2920 l0 -80 40 0 40 0 0 80 0 80 -40 0 -40 0 0 -80z"/>
<path d="M3892 3198 l3 -493 105 0 105 0 -2 318 c-1 175 2 316 5 312 4 -3 111
-147 238 -318 l232 -312 103 0 104 0 3 493 2 492 -111 0 -112 0 5 -322 c5
-285 4 -320 -9 -303 -8 11 -115 155 -237 320 l-221 300 -108 3 -107 3 2 -493z"/>
<path d="M6495 3575 c-5 -2 -42 -9 -82 -15 l-72 -12 -3 -86 -3 -87 -52 -3 -53
-3 0 -85 0 -84 55 0 55 0 0 -162 c0 -90 5 -181 11 -203 15 -52 82 -119 134
-134 56 -15 122 -14 183 4 l52 16 0 85 c0 78 -2 85 -17 79 -38 -16 -108 -17
-128 -2 -18 14 -20 29 -23 166 l-3 151 85 0 86 0 0 85 0 85 -85 0 -85 0 0 105
c0 102 -1 105 -22 104 -13 0 -27 -2 -33 -4z"/>
<path d="M5128 3376 c-98 -28 -181 -96 -230 -188 -20 -37 -23 -58 -23 -148 0
-97 2 -109 29 -158 101 -181 339 -246 529 -144 200 107 239 382 78 543 -71 71
-143 100 -256 105 -48 2 -99 -2 -127 -10z m178 -185 c63 -29 89 -72 89 -152 0
-56 -4 -71 -27 -101 -53 -69 -146 -84 -218 -35 -73 49 -92 164 -40 236 25 36
89 71 130 71 14 0 43 -9 66 -19z"/>
<path d="M8663 3376 c-22 -7 -55 -23 -71 -35 -38 -27 -42 -26 -42 4 l0 25
-100 0 -100 0 0 -335 0 -335 105 0 105 0 0 229 c0 228 0 229 23 244 46 30 103
41 138 27 53 -22 59 -53 59 -290 l0 -210 105 0 105 0 0 229 c0 228 0 229 23
244 46 30 103 41 138 27 53 -22 59 -53 59 -290 l0 -210 106 0 105 0 -3 263
c-3 259 -3 263 -29 312 -18 35 -39 59 -74 80 -43 27 -57 30 -129 30 -88 0
-125 -11 -195 -58 -38 -26 -45 -28 -53 -14 -5 9 -29 29 -54 43 -55 32 -156 41
-221 20z"/>
<path d="M11325 3379 c-22 -5 -59 -16 -82 -25 l-43 -16 0 -89 c0 -49 4 -89 9
-89 5 0 29 9 54 20 60 27 154 36 201 20 28 -9 42 -21 52 -46 25 -59 23 -61
-74 -56 -117 6 -188 -14 -241 -67 -62 -62 -75 -173 -27 -246 60 -91 214 -121
342 -66 l51 22 35 -20 c45 -27 113 -36 166 -22 l42 12 0 80 c0 70 -2 80 -16
75 -8 -3 -24 -2 -34 4 -16 9 -18 27 -22 182 -3 161 -5 176 -27 215 -14 24 -41
54 -60 67 -70 49 -219 69 -326 45z m205 -458 c0 -41 -3 -49 -25 -59 -34 -16
-107 -15 -127 1 -27 21 -30 52 -8 80 22 27 55 35 123 28 l37 -3 0 -47z"/>
<path d="M5995 3361 c-22 -10 -52 -31 -67 -46 l-28 -28 0 42 0 41 -105 0 -105
0 2 -332 3 -333 105 0 105 0 3 207 2 208 38 25 c45 29 119 47 161 39 l31 -6 0
101 0 101 -52 0 c-30 0 -71 -9 -93 -19z"/>
<path d="M10615 3366 c-16 -7 -45 -25 -62 -40 l-33 -28 0 36 0 36 -105 0 -105
0 0 -335 0 -335 105 0 105 0 0 203 c0 198 1 204 23 224 41 38 89 56 154 56
l63 1 0 98 0 98 -57 0 c-32 -1 -71 -7 -88 -14z"/>
<path d="M7570 3132 c0 -268 8 -316 62 -371 53 -55 84 -66 178 -66 78 0 90 3
143 33 l57 32 0 -30 0 -30 105 0 105 0 0 335 0 335 -105 0 -105 0 0 -219 0
-220 -26 -20 c-66 -52 -152 -51 -184 2 -18 29 -20 52 -20 245 l0 212 -105 0
-105 0 0 -238z"/>
<path d="M10852 3038 l3 -333 103 -3 102 -3 0 336 0 335 -105 0 -105 0 2 -332z"/>
<path d="M5681 2324 c-43 -36 -58 -89 -38 -137 18 -42 68 -77 112 -77 44 0 94
35 112 77 32 77 -27 163 -112 163 -32 0 -51 -7 -74 -26z"/>
<path d="M8718 2332 c-58 -35 -74 -127 -31 -174 81 -90 213 -43 213 74 0 24
-7 54 -16 66 -35 50 -115 67 -166 34z"/>
<path d="M3897 2333 c-11 -10 -8 -541 3 -631 22 -169 77 -255 208 -319 l76
-38 135 0 c161 0 218 18 301 92 117 105 130 161 130 586 l0 317 -104 0 -105 0
-3 -322 c-3 -348 -6 -367 -61 -427 -66 -72 -243 -69 -309 6 -46 51 -51 91 -56
426 l-4 317 -102 0 c-57 0 -106 -3 -109 -7z"/>
<path d="M9180 2211 l-85 -16 -3 -88 -3 -87 -49 0 -50 0 0 -85 0 -85 50 0 50
0 0 -132 c0 -228 26 -305 115 -352 48 -25 190 -30 243 -7 l32 13 0 85 c0 77
-2 84 -17 78 -10 -4 -41 -10 -70 -12 -47 -5 -52 -3 -70 23 -15 24 -18 49 -18
164 l0 135 88 3 87 3 0 84 0 84 -87 3 -88 3 -3 103 c-3 117 9 108 -122 83z"/>
<path d="M1416 2035 l7 -115 -54 0 c-30 0 -101 -7 -158 -15 -57 -8 -106 -13
-108 -11 -3 2 -11 51 -20 107 -8 57 -17 106 -19 108 -4 4 -233 -48 -246 -55
-3 -3 6 -52 22 -111 16 -59 28 -108 27 -109 -1 -1 -34 -11 -73 -22 -39 -12
-104 -35 -145 -52 -40 -16 -74 -28 -75 -27 0 1 -16 43 -33 92 -18 50 -36 97
-40 104 -6 9 -37 -2 -123 -45 l-115 -57 47 -101 48 -100 -63 -36 c-48 -29
-140 -88 -163 -106 -7 -5 91 -219 140 -308 196 -353 501 -675 896 -944 129
-87 356 -222 375 -222 14 0 263 146 357 210 357 241 661 545 851 851 57 92
156 287 184 362 22 58 25 54 -105 133 -52 31 -97 58 -98 60 -2 1 17 46 42 100
25 53 46 99 46 101 0 6 -230 116 -234 112 -1 -2 -10 -24 -19 -49 -9 -25 -25
-70 -37 -102 l-21 -56 -57 23 c-31 12 -96 35 -144 51 -49 15 -88 32 -88 37 0
5 12 52 26 104 15 57 22 99 17 104 -17 17 -235 61 -243 49 -4 -6 -13 -56 -20
-111 l-13 -101 -31 6 c-49 8 -197 26 -246 28 l-45 3 4 113 3 112 -131 0 -132
0 7 -115z m-26 -409 c33 -9 81 -26 107 -39 l47 -24 47 23 c93 47 151 55 364
50 l196 -4 44 -38 44 -39 10 -280 c6 -154 14 -328 17 -388 l6 -107 -263 2
-264 3 -75 -29 c-97 -37 -153 -37 -250 0 l-75 29 -262 -2 -263 -3 0 28 c0 15
7 191 15 391 15 354 16 364 38 381 12 10 32 26 45 36 21 17 45 19 218 22 150
2 208 0 254 -12z"/>
<path d="M1113 1558 l-81 -11 -6 -81 c-3 -44 -7 -183 -10 -308 -5 -206 -3
-227 12 -233 9 -4 94 -11 187 -15 125 -6 185 -13 228 -28 l57 -19 -2 326 -3
326 -60 24 c-70 29 -190 35 -322 19z"/>
<path d="M1694 1555 c-22 -7 -55 -20 -72 -29 l-32 -17 0 -319 c0 -176 4 -320
9 -320 5 0 28 7 52 16 29 10 104 18 219 24 96 4 182 11 190 14 17 7 17 70 4
452 l-6 170 -96 12 c-120 15 -215 14 -268 -3z"/>
<path d="M5210 2027 c-26 -7 -63 -23 -83 -36 l-37 -23 0 26 0 26 -105 0 -105
0 0 -335 0 -335 105 0 105 0 0 229 0 229 44 21 c45 22 96 29 131 18 45 -15 50
-39 53 -275 l4 -223 101 3 102 3 0 260 c0 280 -2 291 -59 353 -53 59 -166 85
-256 59z"/>
<path d="M6957 2030 c-108 -28 -209 -116 -246 -216 -29 -75 -28 -184 1 -261
28 -77 105 -153 185 -184 104 -40 274 -36 385 8 l38 15 0 89 c0 49 -2 89 -4
89 -2 0 -27 -11 -55 -25 -92 -47 -204 -54 -272 -19 -15 7 -38 27 -53 44 -50
60 -49 60 200 60 l227 0 -5 88 c-8 141 -64 234 -172 287 -60 29 -166 41 -229
25z m115 -160 c37 -11 88 -60 88 -86 0 -11 -24 -14 -130 -14 l-131 0 15 28
c19 36 47 61 82 72 39 11 34 11 76 0z"/>
<path d="M8174 2027 c-134 -35 -214 -145 -185 -255 24 -87 86 -129 241 -162
51 -12 101 -25 111 -31 23 -12 25 -42 4 -59 -39 -32 -187 -15 -288 34 l-48 24
3 -96 3 -96 60 -20 c46 -15 89 -20 186 -20 120 -1 128 0 184 29 82 42 118 94
123 178 6 116 -49 172 -203 208 -128 30 -159 42 -164 64 -12 63 150 58 312
-10 15 -6 17 1 17 84 l0 90 -67 21 c-85 26 -221 34 -289 17z"/>
<path d="M7785 2019 c-17 -5 -50 -25 -73 -45 l-42 -36 0 41 0 41 -100 0 -100
0 0 -335 0 -336 103 3 102 3 5 207 c5 206 5 206 30 225 43 32 79 43 140 43
l60 0 0 100 0 100 -47 -1 c-27 0 -62 -5 -78 -10z"/>
<path d="M5650 1685 l0 -335 105 0 105 0 0 335 0 335 -105 0 -105 0 0 -335z"/>
<path d="M5950 2017 c0 -2 60 -152 134 -333 l135 -329 101 0 101 0 135 329
c74 181 134 331 134 333 0 2 -47 3 -104 3 l-104 0 -45 -117 c-26 -65 -62 -158
-81 -208 -26 -67 -37 -85 -41 -70 -4 11 -37 103 -74 205 l-67 185 -112 3 c-62
1 -112 1 -112 -1z"/>
<path d="M8680 1685 l0 -335 105 0 105 0 0 335 0 335 -105 0 -105 0 0 -335z"/>
<path d="M9538 2003 c6 -10 67 -144 137 -297 l127 -279 -83 -176 c-46 -97 -85
-179 -87 -183 -2 -5 46 -8 105 -8 l109 0 216 480 216 480 -107 0 -107 0 -78
-184 -79 -184 -54 131 c-30 73 -64 156 -75 185 l-21 52 -114 0 c-105 0 -113
-1 -105 -17z"/>
<path d="M6655 737 c-116 -30 -203 -101 -254 -207 -23 -49 -26 -67 -26 -160 0
-94 3 -111 27 -160 37 -75 100 -137 178 -174 61 -29 72 -31 180 -31 97 0 123
4 163 22 l47 22 0 69 0 70 -57 -31 c-53 -29 -66 -32 -148 -32 -73 0 -98 4
-130 22 -79 42 -124 111 -132 204 -10 106 39 199 130 246 43 22 66 27 128 27
65 1 84 -4 138 -30 l62 -31 -3 71 -3 70 -49 19 c-64 23 -187 30 -251 14z"/>
<path d="M8049 737 c-93 -26 -146 -88 -156 -180 -7 -71 20 -135 76 -175 22
-16 85 -44 140 -61 55 -18 110 -40 123 -51 31 -25 31 -91 0 -122 -20 -20 -33
-23 -110 -23 -78 0 -93 3 -150 32 l-63 32 3 -72 3 -71 50 -20 c39 -15 75 -20
160 -20 103 -1 113 1 158 27 26 15 60 47 75 69 23 35 27 52 27 112 0 122 -46
169 -227 228 -100 32 -123 47 -132 83 -15 58 37 105 116 105 37 0 125 -26 191
-55 16 -7 18 -2 15 61 l-3 68 -53 18 c-71 24 -185 31 -243 15z"/>
<path d="M3940 375 l0 -365 65 0 65 0 2 254 3 254 190 -254 189 -254 63 0 63
0 0 365 0 366 -62 -3 -63 -3 -5 -252 -5 -251 -190 254 -189 254 -63 0 -63 0 0
-365z"/>
<path d="M4747 733 c-4 -3 -7 -168 -7 -365 l0 -358 225 0 225 0 0 60 0 60
-155 0 -155 0 0 100 0 100 130 0 130 0 0 55 0 55 -130 0 -130 0 0 90 0 90 150
0 150 0 0 60 0 60 -213 0 c-118 0 -217 -3 -220 -7z"/>
<path d="M5300 731 c0 -9 70 -240 181 -594 l40 -128 71 3 70 3 62 200 c34 110
67 216 73 235 l10 35 16 -55 c10 -30 43 -137 74 -237 l56 -183 71 0 71 0 110
357 c61 197 109 360 108 363 -2 3 -30 6 -62 8 -49 2 -61 0 -69 -15 -5 -10 -42
-129 -83 -265 -40 -136 -74 -246 -75 -245 -2 1 -32 99 -69 217 -36 118 -73
236 -81 263 l-16 47 -47 0 -48 0 -31 -97 c-17 -54 -55 -176 -84 -271 -29 -95
-53 -170 -54 -165 -1 4 -37 126 -80 271 l-77 262 -69 0 c-37 0 -68 -4 -68 -9z"/>
<path d="M7362 693 c-11 -27 -77 -187 -147 -358 -70 -171 -129 -314 -132 -318
-3 -4 28 -7 68 -5 l72 3 33 85 32 85 154 0 153 0 35 -87 34 -88 68 0 c37 0 68
4 68 8 0 5 -63 164 -141 353 -78 189 -143 350 -146 357 -3 8 -27 12 -68 12
l-63 0 -20 -47z m138 -256 c28 -76 50 -141 47 -143 -2 -3 -52 -3 -110 -2
l-105 3 49 130 c27 72 52 136 54 144 3 8 7 12 9 10 2 -2 27 -66 56 -142z"/>
<path d="M8480 680 l0 -60 115 0 115 0 0 -305 0 -305 70 0 70 0 0 305 0 305
115 0 115 0 0 60 0 60 -300 0 -300 0 0 -60z"/>
<path d="M9230 375 l0 -365 230 0 230 0 0 60 0 60 -165 0 -165 0 0 305 0 305
-65 0 -65 0 0 -365z"/>
<path d="M9820 375 l0 -365 225 0 225 0 0 60 0 60 -160 0 -160 0 0 100 0 100
135 0 135 0 0 55 0 54 -132 3 -133 3 -3 88 -3 87 156 0 155 0 0 60 0 60 -220
0 -220 0 0 -365z"/>
</g>
</svg>
